# xmcd CD database file
#
# Track frame offsets:
#	150
#	20395
#	51579
#	77637
#	108459
#	136033
#	159470
#	185586
#	225439
#
# Disc length: 3284 seconds
#
# Revision: 1
# Processed by: cddbd v1.5.2PL0 Copyright (c) Steve Scherf et al.
# Submitted via: CDex 1.70beta2
#
DISCID=6a0cd209
DTITLE=Jesper Thilo - Remembering Those Who Were
DYEAR=2009
DGENRE=Jazz
TTITLE0=Donna Lee
TTITLE1=When Sunny Gets Blue
TTITLE2=Ghost Of A Chance
TTITLE3=Dindi
TTITLE4=Cherokee
TTITLE5=I Remember Clifford
TTITLE6=Moonlight Serenade
TTITLE7=Divertimento
TTITLE8=Remembering Those Who Were
EXTD=YEAR: 2009
EXTT0=
EXTT1=
EXTT2=
EXTT3=
EXTT4=
EXTT5=
EXTT6=
EXTT7=
EXTT8=
PLAYORDER=
